<svg width="1600" height="900" viewBox="0 0 1600 900" xmlns="http://www.w3.org/2000/svg">
<defs>
  <linearGradient id="sky" x1="0" y1="0" x2="0" y2="1">
    <stop offset="0%" stop-color="#dfe9ff"/>
    <stop offset="100%" stop-color="#f6d9b2"/>
  </linearGradient>
  <linearGradient id="road" x1="0" y1="0" x2="1" y2="1">
    <stop offset="0%" stop-color="#6f7f91"/>
    <stop offset="100%" stop-color="#4b5665"/>
  </linearGradient>
</defs>
<rect width="1600" height="900" fill="url(#sky)"/>
<rect y="220" width="1600" height="680" fill="#849461"/>
<g fill="#6a7f4f">
  <circle cx="180" cy="290" r="44"/><circle cx="340" cy="250" r="34"/><circle cx="560" cy="330" r="52"/>
  <circle cx="790" cy="270" r="44"/><circle cx="1040" cy="320" r="56"/><circle cx="1290" cy="290" r="46"/><circle cx="1440" cy="250" r="40"/>
</g>
<g fill="#49515c">
  <rect x="1120" y="55" width="38" height="115"/><rect x="1180" y="28" width="48" height="142"/><rect x="1248" y="46" width="34" height="124"/>
  <rect x="1302" y="68" width="26" height="102"/><rect x="1342" y="12" width="30" height="158"/>
  <rect x="1386" y="58" width="20" height="112"/>
</g>
<polygon points="1415,0 1432,170 1398,170" fill="#68707b"/>
<polygon points="760,270 1260,900 430,900" fill="url(#road)" opacity="0.78"/>
<g>
  <rect x="290" y="400" width="110" height="86" fill="#efe7dc"/><rect x="406" y="410" width="110" height="76" fill="#f4eee6"/><rect x="524" y="392" width="112" height="94" fill="#efe7dc"/><rect x="642" y="408" width="116" height="78" fill="#f3ece3"/><rect x="766" y="390" width="118" height="96" fill="#efe7dc"/><rect x="894" y="404" width="124" height="82" fill="#f6efe7"/><rect x="1028" y="392" width="126" height="94" fill="#efe7dc"/><rect x="1166" y="406" width="120" height="80" fill="#f5eee6"/>
  <polygon points="282,400 346,355 408,400" fill="#59636f"/><polygon points="398,410 460,362 520,410" fill="#59636f"/><polygon points="516,392 580,344 646,392" fill="#59636f"/><polygon points="636,408 700,360 764,408" fill="#59636f"/><polygon points="760,390 826,340 888,390" fill="#59636f"/><polygon points="888,404 956,352 1024,404" fill="#59636f"/><polygon points="1020,392 1092,340 1160,392" fill="#59636f"/><polygon points="1158,406 1224,354 1292,406" fill="#59636f"/>
</g>
<g opacity="0.28" stroke="#ffffff" stroke-width="2">
  <line x1="120" y1="250" x2="30" y2="900"/><line x1="220" y1="250" x2="130" y2="900"/><line x1="320" y1="250" x2="230" y2="900"/>
  <line x1="420" y1="250" x2="330" y2="900"/><line x1="520" y1="250" x2="430" y2="900"/><line x1="620" y1="250" x2="530" y2="900"/>
  <line x1="720" y1="250" x2="630" y2="900"/><line x1="820" y1="250" x2="730" y2="900"/><line x1="920" y1="250" x2="830" y2="900"/>
</g>
</svg>
