<svg width="320" height="88" viewBox="0 0 320 88" fill="none" xmlns="http://www.w3.org/2000/svg">
<rect width="320" height="88" rx="18" fill="white" fill-opacity="0"/>
<g transform="translate(0,6)">
<path d="M16 16L36 8L56 16L76 12V64L56 68L36 60L16 64V16Z" fill="#DFF0E0"/>
<path d="M16 16L36 8V60L16 64V16Z" fill="#39BCD2"/>
<path d="M36 8L56 16V68L36 60V8Z" fill="#6FC35B"/>
<path d="M56 16L76 12V64L56 68V16Z" fill="#A5D36D"/>
<path d="M16 64C26 60 30 60 36 60C42 60 48 68 56 68C64 68 67 64 76 64" stroke="#0F4AA9" stroke-width="5" stroke-linecap="round"/>
<path d="M51 13C42.7 13 36 19.7 36 28C36 39 51 52 51 52C51 52 66 39 66 28C66 19.7 59.3 13 51 13Z" fill="#0F6FD0" stroke="white" stroke-width="4"/>
<circle cx="51" cy="28" r="6.5" fill="white"/>
</g>
<text x="92" y="40" font-family="Inter, Arial, sans-serif" font-size="38" font-weight="800" fill="#0F4AA9">LeafletPro</text>
<text x="234" y="66" font-family="Inter, Arial, sans-serif" font-size="30" font-weight="800" fill="#55B85D">UK</text>
</svg>
